<?xml version="1.0" standalone="no"?><!DOCTYPE svg PUBLIC "-//W3C//DTD SVG 1.1//EN" "http://www.w3.org/Graphics/SVG/1.1/DTD/svg11.dtd"><svg t="1552649578243" class="icon" style="" viewBox="0 0 1026 1024" version="1.1" xmlns="http://www.w3.org/2000/svg" p-id="1038" xmlns:xlink="http://www.w3.org/1999/xlink" width="200.390625" height="200"><defs><style type="text/css"></style></defs><path d="M585.684736 785.729536l0-108.56448q0-7.999488-5.428224-13.427712t-12.85632-5.428224l-109.707264 0q-7.428096 0-12.85632 5.428224t-5.428224 13.427712l0 108.56448q0 7.999488 5.428224 13.427712t12.85632 5.428224l109.707264 0q7.428096 0 12.85632-5.428224t5.428224-13.427712zm-1.142784-213.700608l10.285056-262.268928q0-6.856704-5.71392-10.856448-7.428096-6.285312-13.713408-6.285312l-125.70624 0q-6.285312 0-13.713408 6.285312-5.71392 3.999744-5.71392 11.999232l9.713664 261.126144q0 5.71392 5.71392 9.427968t13.713408 3.714048l105.70752 0q7.999488 0 13.427712-3.714048t5.999616-9.427968zm-7.999488-533.680128l438.829056 804.519936q19.99872 35.997696-1.142784 71.995392-9.713664 16.570368-26.569728 26.284032t-36.283392 9.713664l-877.658112 0q-19.427328 0-36.283392-9.713664t-26.569728-26.284032q-21.141504-35.997696-1.142784-71.995392l438.829056-804.519936q9.713664-17.713152 26.855424-27.998208t37.14048-10.285056 37.14048 10.285056 26.855424 27.998208z" p-id="1039"></path></svg>