<?xml version="1.0" standalone="no"?><!DOCTYPE svg PUBLIC "-//W3C//DTD SVG 1.1//EN" "http://www.w3.org/Graphics/SVG/1.1/DTD/svg11.dtd"><svg t="1553751725169" class="icon" style="" viewBox="0 0 1024 1024" version="1.1" xmlns="http://www.w3.org/2000/svg" p-id="16945" xmlns:xlink="http://www.w3.org/1999/xlink" width="200" height="200"><defs><style type="text/css"></style></defs><path d="M512.2048 54.6816c-252.7232 0-457.5232 204.8-457.5232 457.5232S259.4816 969.728 512.2048 969.728 969.728 765.0304 969.728 512.3072 764.928 54.6816 512.2048 54.6816zM727.9616 210.944c50.3808 4.4032 87.552 48.8448 83.2512 99.1232-4.4032 50.3808-48.8448 87.552-99.1232 83.1488-50.3808-4.4032-87.552-48.8448-83.2512-99.1232 4.4032-50.2784 48.7424-87.552 99.1232-83.1488z m-215.7568-97.1776c50.4832 0 91.5456 40.96 91.5456 91.5456s-40.96 91.5456-91.5456 91.5456c-50.4832 0-91.5456-40.96-91.5456-91.5456s40.96-91.5456 91.5456-91.5456z m-215.8592 87.6544c50.3808-4.4032 94.72 32.8704 99.1232 83.1488 4.4032 50.3808-32.8704 94.72-83.2512 99.1232-50.3808 4.4032-94.72-32.8704-99.1232-83.1488-4.3008-50.2784 32.9728-94.72 83.2512-99.1232zM162.5088 574.0544c-38.7072-32.4608-43.7248-90.2144-11.264-128.9216 32.4608-38.7072 90.2144-43.7248 128.9216-11.264 38.7072 32.5632 43.7248 90.2144 11.264 128.9216-32.4608 38.7072-90.2144 43.7248-128.9216 11.264z m145.2032 258.8672c-50.4832 0.2048-91.7504-40.5504-91.9552-91.136-0.2048-50.4832 40.6528-91.648 91.136-91.9552 50.4832-0.2048 91.648 40.6528 91.8528 91.136 0.2048 50.5856-40.5504 91.7504-91.0336 91.9552z m67.1744-320.6144c0-75.776 61.44-137.3184 137.3184-137.3184s137.3184 61.44 137.3184 137.3184c0 75.776-61.44 137.3184-137.3184 137.3184s-137.3184-61.5424-137.3184-137.3184zM587.776 877.1584c-35.5328 35.84-93.4912 36.1472-129.4336 0.512-35.9424-35.6352-36.1472-93.4912-0.512-129.4336 35.5328-35.84 93.4912-36.1472 129.4336-0.512 35.84 35.6352 36.0448 93.5936 0.512 129.4336z m205.4144-109.8752c-32.3584 38.912-90.0096 44.1344-128.9216 11.8784s-44.1344-90.0096-11.8784-128.8192C684.7488 611.5328 742.4 606.208 781.312 638.464s44.1344 90.0096 11.8784 128.8192z m-60.3136-194.9696c-32.4608-38.7072-27.4432-96.4608 11.264-128.9216 38.7072-32.4608 96.4608-27.4432 128.9216 11.264 32.4608 38.7072 27.4432 96.4608-11.264 128.9216-38.7072 32.4608-96.4608 27.4432-128.9216-11.264z" p-id="16946"></path></svg>