<?xml version="1.0" standalone="no"?><!DOCTYPE svg PUBLIC "-//W3C//DTD SVG 1.1//EN" "http://www.w3.org/Graphics/SVG/1.1/DTD/svg11.dtd"><svg t="1554878540048" class="icon" style="" viewBox="0 0 1156 1024" version="1.1" xmlns="http://www.w3.org/2000/svg" p-id="3926" xmlns:xlink="http://www.w3.org/1999/xlink" width="225.78125" height="200"><defs><style type="text/css"></style></defs><path d="M996.473118 366.107527c-79.827957 0-145.892473 60.55914-156.903226 137.634408-134.88172 2.752688-214.709677 112.860215-217.462365 324.817205 0 77.075269-63.311828 140.387097-140.387097 140.387097s-140.387097-63.311828-140.387097-140.387097v-209.204301c16.516129-5.505376 30.27957-11.010753 41.290323-24.774194l220.215054-220.215054c19.268817-19.268817 27.526882-41.290323 27.526881-68.817204 0-24.774194-11.010753-49.548387-27.526881-68.817204l-148.645162-148.645161c2.752688-8.258065 5.505376-16.516129 5.505377-24.774194 0-35.784946-27.526882-63.311828-63.311828-63.311828s-63.311828 27.526882-63.311828 63.311828 27.526882 63.311828 63.311828 63.311828c8.258065 0 13.763441-2.752688 19.268817-2.752688l151.397849 151.397849c8.258065 8.258065 13.763441 19.268817 13.763441 30.27957s-5.505376 22.021505-13.763441 30.27957l-220.215053 220.215054c-16.516129 16.516129-44.043011 16.516129-60.55914 0l-220.215054-220.215054c-8.258065-8.258065-13.763441-19.268817-13.763441-30.27957s5.505376-22.021505 13.763441-30.27957L220.215054 121.11828c5.505376 2.752688 13.763441 2.752688 19.268817 2.752688 35.784946 0 63.311828-27.526882 63.311828-63.311828S275.268817 0 239.483871 0C203.698925 0 173.419355 27.526882 173.419355 63.311828c0 8.258065 2.752688 16.516129 5.505376 24.774194L27.526882 239.483871c-19.268817 19.268817-27.526882 41.290323-27.526882 68.817204s11.010753 49.548387 27.526882 68.817205l220.215053 220.215053c11.010753 11.010753 27.526882 19.268817 41.290323 24.774194v209.204301c0 107.354839 85.333333 192.688172 192.688172 192.688172 101.849462 0 187.182796-82.580645 192.688172-184.430108 0-247.741935 85.333333-280.774194 167.913979-280.774193 13.763441 71.569892 77.075269 123.870968 154.150537 123.870968 88.086022 0 156.903226-71.569892 156.903226-156.903226s-71.569892-159.655914-156.903226-159.655914z m88.086022 217.462365l-85.333334-85.333333-88.086021 88.086022c-11.010753-16.516129-19.268817-38.537634-19.268817-60.55914 0-57.806452 46.795699-104.602151 104.60215-104.602151S1101.075269 467.956989 1101.075269 525.763441c0 19.268817-5.505376 41.290323-16.516129 57.806451z" p-id="3927"></path></svg>