<?xml version="1.0" standalone="no"?><!DOCTYPE svg PUBLIC "-//W3C//DTD SVG 1.1//EN" "http://www.w3.org/Graphics/SVG/1.1/DTD/svg11.dtd"><svg t="1554278298400" class="icon" style="" viewBox="0 0 1024 1024" version="1.1" xmlns="http://www.w3.org/2000/svg" p-id="4124" xmlns:xlink="http://www.w3.org/1999/xlink" width="200" height="200"><defs><style type="text/css"></style></defs><path d="M512 910.222222c-221.866667 0-398.222222-176.355556-398.222222-398.222222 0-182.044444 119.466667-329.955556 284.444444-381.155556V11.377778C170.666667 62.577778 0 267.377778 0 512c0 284.444444 227.555556 512 512 512 244.622222 0 449.422222-170.666667 500.622222-398.222222h-119.466666c-51.2 164.977778-199.111111 284.444444-381.155556 284.444444z m398.222222-398.222222h113.777778c0-284.444444-227.555556-512-512-512v512h398.222222z m-284.444444-381.155556c125.155556 39.822222 227.555556 142.222222 267.377778 267.377778H625.777778V130.844444z" p-id="4125"></path></svg>