<?xml version="1.0" standalone="no"?><!DOCTYPE svg PUBLIC "-//W3C//DTD SVG 1.1//EN" "http://www.w3.org/Graphics/SVG/1.1/DTD/svg11.dtd"><svg t="1554356603538" class="icon" style="" viewBox="0 0 1024 1024" version="1.1" xmlns="http://www.w3.org/2000/svg" p-id="1261" xmlns:xlink="http://www.w3.org/1999/xlink" width="200" height="200"><defs><style type="text/css"></style></defs><path d="M901.022744 198.734316L592.875781 21.114721c-48.627843-28.152962-108.004999-28.152962-156.632842 0l-307.635091 177.619595c-48.627843 28.152962-78.316421 79.340165-78.316421 135.646089v355.23919c0 55.794051 29.688578 107.493127 78.316421 135.646089l307.635091 177.619595c48.627843 28.152962 108.004999 28.152962 156.632842 0l307.635091-177.619595c48.627843-28.152962 78.316421-79.340165 78.316421-135.646089v-355.23919c0-55.794051-29.688578-107.493127-77.804549-135.646089zM837.03874 620.004999h-62.96026L706.511372 755.139215c-11.773057 22.522369-33.271682 17.915521-34.295426 17.915521-16.891777 2.047488-32.75981-10.237441-34.807298-27.641089l-42.997251-364.964759-84.970757 456.589852c-3.071232 16.891777-19.451137 28.152962-36.342914 25.08173-14.844289-3.071232-25.593602-15.868033-25.593602-30.712322l-73.197701-372.130967-44.020994 137.181704c-4.094976 29.688578-49.651587 23.034241-54.770308 23.034242h-82.923269c-17.403649 0-31.224194-13.820545-31.224194-31.224194 0-17.403649 13.820545-31.224194 31.224194-31.224194H277.562609l70.126469-218.569358c4.094976-13.308673 16.379905-21.498625 29.688578-21.498625 0.511872 0 0.511872 0 1.023744-0.511872 16.891777-3.583104 33.271682 7.67808 36.854786 24.569857l63.472132 322.47938 88.553861-475.017245c2.047488-11.773057 10.749313-20.474881 20.986754-24.057986 3.583104-2.047488 7.67808-3.583104 12.284929-4.094976 16.891777-2.047488 32.75981 10.237441 34.807298 27.64109l54.258435 461.708573 34.295426-68.590853c3.071232-13.820545 15.356161-24.569858 30.20045-24.569857h82.923269c17.403649 0 31.224194 13.820545 31.224194 31.224194 0 18.427393-13.820545 32.247938-31.224194 32.247938z" p-id="1262"></path></svg>