<?xml version="1.0" standalone="no"?><!DOCTYPE svg PUBLIC "-//W3C//DTD SVG 1.1//EN" "http://www.w3.org/Graphics/SVG/1.1/DTD/svg11.dtd"><svg t="1557196456137" class="icon" style="" viewBox="0 0 1529 1024" version="1.1" xmlns="http://www.w3.org/2000/svg" p-id="3379" xmlns:xlink="http://www.w3.org/1999/xlink" width="298.6328125" height="200"><defs><style type="text/css"></style></defs><path d="M71.997966 1022.266723A71.997966 71.997966 0 0 1 0 950.268757V72.424948a71.997966 71.997966 0 0 1 143.995932 0v877.843809a71.997966 71.997966 0 0 1-71.997966 71.997966zM281.192701 1024a35.998983 35.998983 0 0 1-35.998983-35.998983V38.266197a35.998983 35.998983 0 1 1 71.997966 0v949.707831A35.998983 35.998983 0 0 1 281.192701 1024z m184.661968-1.839233a35.998983 35.998983 0 0 1-35.998983-35.999982V36.452954a35.998983 35.998983 0 1 1 71.997967 0v949.707831a35.998983 35.998983 0 0 1-35.998984 35.998983z m211.46079 0.079967a71.997966 71.997966 0 0 1-71.997966-71.998966V72.424948a71.997966 71.997966 0 1 1 143.995932 0v877.81682a71.997966 71.997966 0 0 1-71.997966 71.997966z m209.167746 0.025989a35.998983 35.998983 0 0 1-35.998983-35.998983V36.531921a35.998983 35.998983 0 1 1 71.997966 0v949.73382a35.998983 35.998983 0 0 1-35.998983 35.999982z m397.216302-0.132945a71.997966 71.997966 0 0 1-71.997966-71.998965V72.424948a71.997966 71.997966 0 0 1 143.995932 0v877.709865a71.997966 71.997966 0 0 1-71.997966 71.998965z m209.167746 0.02599a35.998983 35.998983 0 0 1-35.998983-35.998983V36.426965a35.998983 35.998983 0 0 1 71.997966 0v949.70783a35.998983 35.998983 0 0 1-35.998983 36.024973z m-421.72208 0a35.998983 35.998983 0 0 1-35.998983-35.998983V36.426965a35.998983 35.998983 0 1 1 71.997967 0v949.73382a35.998983 35.998983 0 0 1-35.998984 35.998983z" p-id="3380"></path></svg>