<?xml version="1.0" standalone="no"?><!DOCTYPE svg PUBLIC "-//W3C//DTD SVG 1.1//EN" "http://www.w3.org/Graphics/SVG/1.1/DTD/svg11.dtd"><svg t="1554195803458" class="icon" style="" viewBox="0 0 1075 1024" version="1.1" xmlns="http://www.w3.org/2000/svg" p-id="3331" xmlns:xlink="http://www.w3.org/1999/xlink" width="209.9609375" height="200"><defs><style type="text/css"></style></defs><path d="M855.71605 1023.975619c-105.466978 0-193.731574-73.314909-214.62018-170.641474H434.05293C413.164325 950.66071 324.899728 1023.975619 219.43275 1023.975619 98.452912 1023.975619 0 927.57061 0 809.048254c0-118.471158 98.452912-214.876167 219.43275-214.876167 19.813456 0 38.705357 3.327842 56.982887 8.19161l115.245712-221.173468c-49.661635-39.47332-82.120889-98.91369-82.12089-166.238483C309.540459 96.42939 407.993371 0.024381 528.97321 0.024381c120.979839 0 219.43275 96.405009 219.43275 214.927365 0 65.635274-30.87213 123.744507-78.383467 163.16663l124.000495 225.474062a221.275863 221.275863 0 0 1 61.693062-9.420351c120.979839 0 219.43275 96.405009 219.43275 214.876167C1075.1488 927.57061 976.695888 1023.975619 855.71605 1023.975619z m-507.265444-214.927365c0-69.679882-57.853245-126.40678-129.017856-126.40678-71.164611 0-129.069054 56.726899-129.069053 126.40678 0 69.731079 57.904443 126.457978 129.069053 126.457978s129.017856-56.726899 129.017856-126.40678v-0.051198z m180.522604-720.554486c-71.164611 0-129.069054 56.726899-129.069054 126.457978 0 69.679882 57.904443 126.40678 129.069054 126.40678s129.069054-56.726899 129.069053-126.40678c0-69.731079-57.904443-126.457978-129.069053-126.457978z m61.539469 331.657806a220.303109 220.303109 0 0 1-61.539469 9.676339c-19.813456 0-38.654159-3.430237-56.931689-8.242807l-114.938527 220.507899a214.261797 214.261797 0 0 1 76.949936 122.720556h207.04294c10.239512-47.562535 36.708652-89.23735 73.212514-119.546307l-123.795705-225.11568z m265.203371 262.4899c-71.164611 0-129.069054 56.726899-129.069054 126.40678 0 69.731079 57.904443 126.457978 129.069054 126.457978s129.069054-56.726899 129.069053-126.457978c0-69.679882-57.904443-126.40678-129.069053-126.40678z" p-id="3332"></path></svg>