<?xml version="1.0" standalone="no"?><!DOCTYPE svg PUBLIC "-//W3C//DTD SVG 1.1//EN" "http://www.w3.org/Graphics/SVG/1.1/DTD/svg11.dtd"><svg t="1563180067028" class="icon" viewBox="0 0 1024 1024" version="1.1" xmlns="http://www.w3.org/2000/svg" p-id="1122" xmlns:xlink="http://www.w3.org/1999/xlink" width="200" height="200"><defs><style type="text/css"></style></defs><path d="M277.869714 781.458286h617.984c30.281143 0 54.857143 24.137143 54.857143 53.906285s-24.576 53.906286-54.857143 53.906286H277.869714a110.738286 110.738286 0 0 1-123.465143 50.322286A108.251429 108.251429 0 0 1 73.142857 835.437714c0-48.786286 33.353143-91.428571 81.261714-104.009143a109.933714 109.933714 0 0 1 123.465143 50.029715z m139.117715-215.625143H128.146286c-30.281143 0-54.857143-24.137143-54.857143-53.833143s24.576-53.906286 54.857143-53.906286h288.841143A110.445714 110.445714 0 0 1 512 404.114286c39.277714 0 75.410286 20.553143 95.085714 53.906285h288.914286c30.281143 0.073143 54.857143 24.283429 54.857143 53.979429s-24.576 53.833143-54.857143 53.833143H607.085714a110.372571 110.372571 0 0 1-95.085714 54.052571 110.445714 110.445714 0 0 1-95.012571-54.052571z m329.142857-431.104a110.665143 110.665143 0 0 1 123.392-50.322286A108.251429 108.251429 0 0 1 950.857143 188.562286c0 48.786286-33.353143 91.428571-81.334857 104.009143a110.445714 110.445714 0 0 1-123.392-50.249143H128.146286a54.418286 54.418286 0 0 1-54.857143-53.906286c0-29.696 24.576-53.906286 54.857143-53.906286h617.984v0.219429z m0 0" p-id="1123"></path></svg>