<?xml version="1.0" standalone="no"?><!DOCTYPE svg PUBLIC "-//W3C//DTD SVG 1.1//EN" "http://www.w3.org/Graphics/SVG/1.1/DTD/svg11.dtd"><svg t="1553415619800" class="icon" style="" viewBox="0 0 1024 1024" version="1.1" xmlns="http://www.w3.org/2000/svg" p-id="2600" xmlns:xlink="http://www.w3.org/1999/xlink" width="200" height="200"><defs><style type="text/css"></style></defs><path d="M450.744305 543.829846C448.961786 548.882316 448 554.326195 448 560 448 586.694488 469.759459 608 496.601112 608L719.398886 608C747.003904 608 768 586.509668 768 560 768 533.305512 746.240544 512 719.398886 512L544 512 544 368.151642C544 341.826416 522.509668 320 496 320 469.305512 320 448 341.558225 448 368.151642L448 527.848358C448 533.43314 448.967189 538.815449 450.744305 543.829846Z" p-id="2601"></path><path d="M864 512C864 317.595768 706.40423 160 512 160 317.595768 160 160 317.595768 160 512 160 706.40423 317.595768 864 512 864 706.40423 864 864 706.40423 864 512ZM64 512C64 264.576432 264.576432 64 512 64 759.423565 64 960 264.576432 960 512 960 759.423565 759.423565 960 512 960 264.576432 960 64 759.423565 64 512Z" p-id="2602"></path></svg>