<?xml version="1.0" standalone="no"?><!DOCTYPE svg PUBLIC "-//W3C//DTD SVG 1.1//EN" "http://www.w3.org/Graphics/SVG/1.1/DTD/svg11.dtd"><svg t="1554291794766" class="icon" style="" viewBox="0 0 1047 1024" version="1.1" xmlns="http://www.w3.org/2000/svg" p-id="2632" xmlns:xlink="http://www.w3.org/1999/xlink" width="204.4921875" height="200"><defs><style type="text/css"></style></defs><path d="M989.866667 955.733333H68.266667V34.133333C68.266667 13.653333 54.613333 0 34.133333 0S0 13.653333 0 34.133333v955.733334c0 20.48 13.653333 34.133333 34.133333 34.133333h955.733334c20.48 0 34.133333-13.653333 34.133333-34.133333s-13.653333-34.133333-34.133333-34.133334z" fill="#999999" p-id="2633"></path><path d="M662.186667 716.8c-13.653333 0-34.133333-6.826667-47.786667-20.48L334.506667 416.426667 218.453333 648.533333c-6.826667 13.653333-27.306667 20.48-40.96 13.653334-20.48-6.826667-27.306667-27.306667-20.48-40.96L273.066667 382.293333c6.826667-20.48 27.306667-34.133333 47.786666-34.133333 20.48 0 40.96 6.826667 54.613334 20.48l279.893333 279.893333L983.04 136.533333c6.826667-13.653333 34.133333-20.48 47.786667-13.653333 13.653333 6.826667 20.48 34.133333 13.653333 47.786667L723.626667 682.666667c-13.653333 13.653333-27.306667 27.306667-47.786667 27.306666-6.826667 6.826667-13.653333 6.826667-13.653333 6.826667z" fill="#999999" p-id="2634"></path></svg>